<svg width="65" height="43" viewBox="0 0 65 43" fill="none" xmlns="http://www.w3.org/2000/svg">
<path d="M6.18594 19.1296L0.585938 13.5296C4.67483 9.35184 9.4526 6.08518 14.9193 3.72962C20.3859 1.37407 26.2748 0.196289 32.5859 0.196289C33.6526 0.196289 34.7193 0.229622 35.7859 0.296289C36.8526 0.362956 37.9193 0.462956 38.9859 0.596289L34.9859 8.32962C34.4526 8.24073 34.0193 8.19629 33.6859 8.19629H32.5859C27.4304 8.19629 22.597 9.16296 18.0859 11.0963C13.5748 13.0296 9.60816 15.7074 6.18594 19.1296ZM17.5193 30.463L11.9193 24.7296C14.4082 22.2407 17.2637 20.2741 20.4859 18.8296C23.7082 17.3852 27.2082 16.5518 30.9859 16.3296L26.7193 24.9963C24.9859 25.5296 23.3415 26.2518 21.7859 27.163C20.2304 28.0741 18.8082 29.1741 17.5193 30.463ZM30.7193 42.463C29.3859 41.9741 28.3526 41.0518 27.6193 39.6963C26.8859 38.3407 26.8526 36.9963 27.5193 35.663L43.5193 3.12962C43.6971 2.77407 43.9526 2.54073 44.2859 2.42962C44.6193 2.31851 44.9859 2.32962 45.3859 2.46296C45.7415 2.59629 46.0082 2.81851 46.1859 3.12962C46.3637 3.44073 46.4082 3.79629 46.3193 4.19629L37.6526 39.263C37.2971 40.7296 36.4082 41.7518 34.9859 42.3296C33.5637 42.9074 32.1415 42.9518 30.7193 42.463ZM47.6526 30.463C47.3859 30.1963 47.0971 29.9296 46.7859 29.663C46.4748 29.3963 46.1415 29.1296 45.7859 28.863L47.9193 20.463C48.8526 21.1296 49.7748 21.8074 50.6859 22.4963C51.597 23.1852 52.4526 23.9296 53.2526 24.7296L47.6526 30.463ZM58.9859 19.1296C57.6526 17.7963 56.2193 16.5741 54.6859 15.463C53.1526 14.3518 51.5193 13.3518 49.7859 12.463L51.6526 4.46296C54.0526 5.61851 56.3415 6.95185 58.5193 8.46296C60.6971 9.97407 62.7193 11.663 64.5859 13.5296L58.9859 19.1296Z" fill="black"/>
</svg>
