<svg width="65" height="104" viewBox="0 0 65 104" fill="none" xmlns="http://www.w3.org/2000/svg">
<mask id="mask0_1717_1965" style="mask-type:alpha" maskUnits="userSpaceOnUse" x="0" y="39" width="65" height="65">
<rect x="0.585938" y="39.5295" width="64" height="64" fill="#D9D9D9"/>
</mask>
<g mask="url(#mask0_1717_1965)">
<path d="M43.2513 68.8628C44.0069 68.8628 44.6402 68.6072 45.1513 68.0961C45.6624 67.585 45.918 66.9517 45.918 66.1961C45.918 65.4406 45.6624 64.8072 45.1513 64.2961C44.6402 63.785 44.0069 63.5295 43.2513 63.5295C42.4957 63.5295 41.8624 63.785 41.3513 64.2961C40.8402 64.8072 40.5846 65.4406 40.5846 66.1961C40.5846 66.9517 40.8402 67.585 41.3513 68.0961C41.8624 68.6072 42.4957 68.8628 43.2513 68.8628ZM21.918 63.5295H35.2513V58.1961H21.918V63.5295ZM12.5846 95.5295C11.0735 90.4628 9.58464 85.4072 8.11797 80.3628C6.6513 75.3183 5.91797 70.1517 5.91797 64.8628C5.91797 60.7739 7.34019 57.3072 10.1846 54.4628C13.0291 51.6183 16.4957 50.1961 20.5846 50.1961H33.918C35.2069 48.5072 36.7735 47.1961 38.618 46.2628C40.4624 45.3295 42.4513 44.8628 44.5846 44.8628C45.6957 44.8628 46.6402 45.2517 47.418 46.0295C48.1957 46.8072 48.5846 47.7517 48.5846 48.8628C48.5846 49.085 48.4735 49.5961 48.2513 50.3961C48.0735 50.885 47.9069 51.385 47.7513 51.8961C47.5957 52.4072 47.4735 52.9295 47.3846 53.4628L53.4513 59.5295H59.2513V78.1295L51.718 80.5961L47.2513 95.5295H32.5846V90.1961H27.2513V95.5295H12.5846Z" fill="black"/>
</g>
<mask id="mask1_1717_1965" style="mask-type:alpha" maskUnits="userSpaceOnUse" x="9" y="0" width="56" height="56">
<rect x="9.58594" y="20.5295" width="40" height="40" transform="rotate(-30 9.58594 20.5295)" fill="#D9D9D9"/>
</mask>
<g mask="url(#mask1_1717_1965)">
<path d="M44.5686 31.1234L48.8987 28.6234C49.3077 28.3873 49.5706 28.0511 49.6875 27.6147C49.8044 27.1783 49.7449 26.7557 49.5087 26.3467L44.5087 17.6864C44.2726 17.2775 43.9364 17.0145 43.5 16.8976C43.0636 16.7807 42.641 16.8403 42.232 17.0764L37.9019 19.5764C37.4929 19.8125 37.23 20.1488 37.1131 20.5851C36.9962 21.0215 37.0558 21.4442 37.2919 21.8531L42.2919 30.5134C42.528 30.9223 42.8642 31.1853 43.3006 31.3022C43.737 31.4191 44.1596 31.3595 44.5686 31.1234ZM44.3453 27.4033L41.0119 21.6298L42.4553 20.7965L45.7887 26.57L44.3453 27.4033ZM35.9083 36.1234L40.2384 33.6234C40.6474 33.3873 40.9103 33.0511 41.0273 32.6147C41.1442 32.1783 41.0846 31.7557 40.8485 31.3467L35.8485 22.6864C35.6124 22.2775 35.2761 22.0145 34.8398 21.8976C34.4034 21.7807 33.9807 21.8403 33.5718 22.0764L29.2416 24.5764C28.8327 24.8125 28.5698 25.1488 28.4528 25.5851C28.3359 26.0215 28.3955 26.4442 28.6316 26.8531L33.6316 35.5134C33.8677 35.9223 34.204 36.1853 34.6403 36.3022C35.0767 36.4191 35.4994 36.3595 35.9083 36.1234ZM35.685 32.4033L32.3517 26.6298L33.7951 25.7965L37.1284 31.57L35.685 32.4033ZM30.1348 39.4567L33.0216 37.7901L26.3549 26.2431L23.4681 27.9097L30.1348 39.4567ZM29.138 47.7302L15.8047 24.6362L44.6722 7.96956L58.0055 31.0636L29.138 47.7302Z" fill="black"/>
</g>
</svg>
