<svg width="44" height="45" viewBox="0 0 44 45" fill="none" xmlns="http://www.w3.org/2000/svg">
<path d="M11.1831 22.8384H11.6692C12.2058 22.8384 12.6414 22.4038 12.6414 21.8662C12.6414 21.3286 12.2058 20.894 11.6692 20.894H11.1831C10.6465 20.894 10.2109 21.3286 10.2109 21.8662C10.2109 22.4038 10.6465 22.8384 11.1831 22.8384Z" fill="white"/>
<path d="M15.0698 22.8384H15.5559C16.0925 22.8384 16.5281 22.4038 16.5281 21.8662C16.5281 21.3286 16.0925 20.894 15.5559 20.894H15.0698C14.5332 20.894 14.0977 21.3286 14.0977 21.8662C14.0977 22.4038 14.5332 22.8384 15.0698 22.8384Z" fill="white"/>
<path d="M35.4858 35.4766H22.8477V33.5322H29.6528C30.1895 33.5322 30.625 33.0977 30.625 32.5601V18.9497C30.625 18.4121 30.1895 17.9775 29.6528 17.9775H8.26514C7.7285 17.9775 7.29297 18.4121 7.29297 18.9497V32.5601C7.29297 33.0977 7.7285 33.5322 8.26514 33.5322H15.0703V35.4766H8.26514C7.7285 35.4766 7.29297 35.9111 7.29297 36.4487C7.29297 36.9863 7.7285 37.4209 8.26514 37.4209H35.4858C36.0225 37.4209 36.458 36.9863 36.458 36.4487C36.458 35.9111 36.0225 35.4766 35.4858 35.4766ZM28.6807 19.9219V28.6714H9.2373V19.9219H28.6807ZM9.2373 30.6157H28.6807V31.5879H9.2373V30.6157ZM17.0146 33.5322H20.9033V35.4766H17.0146V33.5322Z" fill="white"/>
<path d="M36.459 30.6157H32.5703V33.5322H36.459V30.6157Z" fill="white"/>
<path d="M35.4868 8.25586H25.7651C25.2285 8.25586 24.793 8.69042 24.793 9.22803V16.0332H31.5981C32.1348 16.0332 32.5703 16.4687 32.5703 17.0054V28.6714H36.459V9.22803C36.459 8.69042 36.0235 8.25586 35.4868 8.25586ZM30.626 14.0889C30.0893 14.0889 29.6538 13.6533 29.6538 13.1167V12.1445C29.6538 11.6079 30.0893 11.1724 30.626 11.1724C31.1626 11.1724 31.5981 11.6079 31.5981 12.1445V13.1167C31.5981 13.6533 31.1626 14.0889 30.626 14.0889Z" fill="white"/>
</svg>
