<svg width="92" height="93" viewBox="0 0 92 93" fill="none" xmlns="http://www.w3.org/2000/svg">
<path d="M46.166 3.81836C69.3493 3.81861 88.0098 22.9976 88.0098 46.4893C88.0098 69.9809 69.3493 89.1599 46.166 89.1602C22.9825 89.1602 4.32129 69.981 4.32129 46.4893C4.32129 22.9975 22.9825 3.81836 46.166 3.81836Z" fill="#A7004C" stroke="white" stroke-width="7.34118"/>
<path d="M49.1209 51.4565V40.6054C49.1209 39.5806 49.1897 38.4489 49.3274 37.2101L39.0268 51.4565H49.1209ZM58.2286 51.4565V54.7371C58.2286 55.043 58.1292 55.3106 57.9303 55.5401C57.7315 55.7542 57.4486 55.8612 57.0815 55.8612H54.0533V63.9595H49.1209V55.8612H35.1268C34.7445 55.8612 34.408 55.7465 34.1174 55.5171C33.8268 55.2724 33.6433 54.9742 33.5668 54.6224L32.9703 51.7548L48.685 30.7636H54.0533V51.4565H58.2286Z" fill="white"/>
</svg>
