<svg width="62" height="76" viewBox="0 0 62 76" fill="none" xmlns="http://www.w3.org/2000/svg">
<path d="M25.3958 49.4047H36.7708L34.5906 37.1766C35.8545 36.5446 36.8498 35.6283 37.5766 34.4276C38.3033 33.2269 38.6667 31.8998 38.6667 30.4464C38.6667 28.361 37.9241 26.5757 36.4391 25.0906C34.954 23.6056 33.1688 22.863 31.0833 22.863C28.9979 22.863 27.2127 23.6056 25.7276 25.0906C24.2425 26.5757 23.5 28.361 23.5 30.4464C23.5 31.8998 23.8634 33.2269 24.5901 34.4276C25.3168 35.6283 26.3122 36.5446 27.576 37.1766L25.3958 49.4047ZM31.0833 75.9464C22.2993 73.7346 15.0477 68.6948 9.32865 60.8271C3.60955 52.9594 0.75 44.2228 0.75 34.6172V11.488L31.0833 0.113037L61.4167 11.488V34.6172C61.4167 44.2228 58.5571 52.9594 52.838 60.8271C47.1189 68.6948 39.8674 73.7346 31.0833 75.9464Z" fill="#191A1C"/>
</svg>
