<svg width="51" height="59" viewBox="0 0 51 59" fill="none" xmlns="http://www.w3.org/2000/svg">
<path d="M13.5833 18.863H29.5833V13.5296C29.5833 11.3074 28.8056 9.41851 27.25 7.86296C25.6944 6.3074 23.8056 5.52962 21.5833 5.52962C19.3611 5.52962 17.4722 6.3074 15.9167 7.86296C14.3611 9.41851 13.5833 11.3074 13.5833 13.5296V18.863ZM37.5833 58.863C33.8944 58.863 30.75 57.563 28.15 54.963C25.55 52.363 24.25 49.2185 24.25 45.5296C24.25 41.8407 25.55 38.6963 28.15 36.0963C30.75 33.4963 33.8944 32.1963 37.5833 32.1963C41.2722 32.1963 44.4167 33.4963 47.0167 36.0963C49.6167 38.6963 50.9167 41.8407 50.9167 45.5296C50.9167 49.2185 49.6167 52.363 47.0167 54.963C44.4167 57.563 41.2722 58.863 37.5833 58.863ZM41.9833 51.7963L43.85 49.9296L38.9167 44.9963V37.5296H36.25V46.063L41.9833 51.7963ZM22.25 56.1963H5.58333C4.11667 56.1963 2.86111 55.6741 1.81667 54.6296C0.772222 53.5852 0.25 52.3296 0.25 50.863V24.1963C0.25 22.7296 0.772222 21.4741 1.81667 20.4296C2.86111 19.3852 4.11667 18.863 5.58333 18.863H8.25V13.5296C8.25 9.84073 9.55 6.69629 12.15 4.09629C14.75 1.49629 17.8944 0.196289 21.5833 0.196289C25.2722 0.196289 28.4167 1.49629 31.0167 4.09629C33.6167 6.69629 34.9167 9.84073 34.9167 13.5296V18.863H37.5833C39.05 18.863 40.3056 19.3852 41.35 20.4296C42.3944 21.4741 42.9167 22.7296 42.9167 24.1963V27.663C42.0278 27.3518 41.1389 27.1407 40.25 27.0296C39.3611 26.9185 38.4722 26.863 37.5833 26.863C32.3833 26.863 27.9722 28.6741 24.35 32.2963C20.7278 35.9185 18.9167 40.3296 18.9167 45.5296C18.9167 47.4407 19.2167 49.2963 19.8167 51.0963C20.4167 52.8963 21.2278 54.5963 22.25 56.1963Z" fill="#191A1C"/>
</svg>
