<svg width="58" height="49" viewBox="0 0 58 49" fill="none" xmlns="http://www.w3.org/2000/svg">
<path d="M33.2526 48.5295C29.9637 48.5295 26.8859 47.9184 24.0193 46.6962C21.1526 45.474 18.6304 43.7962 16.4526 41.6629L20.2526 37.8629C21.9415 39.5073 23.897 40.8073 26.1193 41.7629C28.3415 42.7184 30.7193 43.1962 33.2526 43.1962C38.4082 43.1962 42.8082 41.374 46.4526 37.7295C50.0971 34.0851 51.9193 29.6851 51.9193 24.5295C51.9193 19.374 50.0971 14.974 46.4526 11.3295C42.8082 7.6851 38.4082 5.86287 33.2526 5.86287C28.097 5.86287 23.6971 7.6851 20.0526 11.3295C16.4082 14.974 14.5859 19.374 14.5859 24.5295V24.9962L19.4526 20.1295L23.2526 23.8629L11.9193 35.1962L0.585938 23.8629L4.38594 20.1295L9.2526 25.0629V24.5295C9.2526 21.1962 9.88594 18.074 11.1526 15.1629C12.4193 12.2518 14.1304 9.71843 16.2859 7.56287C18.4415 5.40732 20.9748 3.69621 23.8859 2.42954C26.7971 1.16287 29.9193 0.529541 33.2526 0.529541C36.5859 0.529541 39.7082 1.16287 42.6193 2.42954C45.5304 3.69621 48.0637 5.40732 50.2193 7.56287C52.3748 9.71843 54.0859 12.2518 55.3526 15.1629C56.6193 18.074 57.2526 21.1962 57.2526 24.5295C57.2526 31.1962 54.9193 36.8629 50.2526 41.5295C45.5859 46.1962 39.9193 48.5295 33.2526 48.5295ZM27.9193 35.1962C27.1637 35.1962 26.5304 34.9407 26.0193 34.4295C25.5082 33.9184 25.2526 33.2851 25.2526 32.5295V24.5295C25.2526 23.774 25.5082 23.1407 26.0193 22.6295C26.5304 22.1184 27.1637 21.8629 27.9193 21.8629V19.1962C27.9193 17.7295 28.4415 16.474 29.4859 15.4295C30.5304 14.3851 31.7859 13.8629 33.2526 13.8629C34.7193 13.8629 35.9748 14.3851 37.0193 15.4295C38.0637 16.474 38.5859 17.7295 38.5859 19.1962V21.8629C39.3415 21.8629 39.9748 22.1184 40.4859 22.6295C40.9971 23.1407 41.2526 23.774 41.2526 24.5295V32.5295C41.2526 33.2851 40.9971 33.9184 40.4859 34.4295C39.9748 34.9407 39.3415 35.1962 38.5859 35.1962H27.9193ZM30.5859 21.8629H35.9193V19.1962C35.9193 18.4407 35.6637 17.8073 35.1526 17.2962C34.6415 16.7851 34.0082 16.5295 33.2526 16.5295C32.497 16.5295 31.8637 16.7851 31.3526 17.2962C30.8415 17.8073 30.5859 18.4407 30.5859 19.1962V21.8629Z" fill="black"/>
</svg>
