<svg width="65" height="65" viewBox="0 0 65 65" fill="none" xmlns="http://www.w3.org/2000/svg">
<mask id="mask0_1717_340" style="mask-type:alpha" maskUnits="userSpaceOnUse" x="0" y="0" width="65" height="65">
<rect x="0.585938" y="0.529541" width="64" height="64" fill="#D9D9D9"/>
</mask>
<g mask="url(#mask0_1717_340)">
<path d="M16.1846 32.5295L15.3846 28.5295C14.8513 28.3072 14.3513 28.0739 13.8846 27.8295C13.418 27.585 12.9402 27.285 12.4513 26.9295L8.58464 28.1295L5.91797 23.5961L8.98464 20.9295C8.89575 20.3517 8.8513 19.7739 8.8513 19.1961C8.8513 18.6183 8.89575 18.0406 8.98464 17.4628L5.91797 14.7961L8.58464 10.2628L12.4513 11.4628C12.9402 11.1072 13.418 10.8072 13.8846 10.5628C14.3513 10.3183 14.8513 10.085 15.3846 9.86279L16.1846 5.86279H21.518L22.318 9.86279C22.8513 10.085 23.3513 10.3183 23.818 10.5628C24.2846 10.8072 24.7624 11.1072 25.2513 11.4628L29.118 10.2628L31.7846 14.7961L28.718 17.4628C28.8069 18.0406 28.8513 18.6183 28.8513 19.1961C28.8513 19.7739 28.8069 20.3517 28.718 20.9295L31.7846 23.5961L29.118 28.1295L25.2513 26.9295C24.7624 27.285 24.2846 27.585 23.818 27.8295C23.3513 28.0739 22.8513 28.3072 22.318 28.5295L21.518 32.5295H16.1846ZM18.8513 24.5295C20.318 24.5295 21.5735 24.0072 22.618 22.9628C23.6624 21.9183 24.1846 20.6628 24.1846 19.1961C24.1846 17.7295 23.6624 16.4739 22.618 15.4295C21.5735 14.385 20.318 13.8628 18.8513 13.8628C17.3846 13.8628 16.1291 14.385 15.0846 15.4295C14.0402 16.4739 13.518 17.7295 13.518 19.1961C13.518 20.6628 14.0402 21.9183 15.0846 22.9628C16.1291 24.0072 17.3846 24.5295 18.8513 24.5295ZM40.0513 61.8628L38.8513 56.2628C38.0957 55.9961 37.3957 55.6739 36.7513 55.2961C36.1069 54.9184 35.4735 54.485 34.8513 53.9961L29.518 55.7295L25.7846 49.3295L30.0513 45.5961C29.9624 44.7961 29.918 43.9961 29.918 43.1961C29.918 42.3961 29.9624 41.5961 30.0513 40.7961L25.7846 37.0628L29.518 30.6628L34.8513 32.3961C35.4735 31.9072 36.1069 31.4739 36.7513 31.0961C37.3957 30.7184 38.0957 30.3961 38.8513 30.1295L40.0513 24.5295H47.518L48.718 30.1295C49.4735 30.3961 50.1735 30.7184 50.818 31.0961C51.4624 31.4739 52.0958 31.9072 52.718 32.3961L58.0513 30.6628L61.7846 37.0628L57.518 40.7961C57.6069 41.5961 57.6513 42.3961 57.6513 43.1961C57.6513 43.9961 57.6069 44.7961 57.518 45.5961L61.7846 49.3295L58.0513 55.7295L52.718 53.9961C52.0958 54.485 51.4624 54.9184 50.818 55.2961C50.1735 55.6739 49.4735 55.9961 48.718 56.2628L47.518 61.8628H40.0513ZM43.7846 51.1961C46.0069 51.1961 47.8957 50.4184 49.4513 48.8628C51.0069 47.3072 51.7846 45.4184 51.7846 43.1961C51.7846 40.9739 51.0069 39.085 49.4513 37.5295C47.8957 35.9739 46.0069 35.1961 43.7846 35.1961C41.5624 35.1961 39.6735 35.9739 38.118 37.5295C36.5624 39.085 35.7846 40.9739 35.7846 43.1961C35.7846 45.4184 36.5624 47.3072 38.118 48.8628C39.6735 50.4184 41.5624 51.1961 43.7846 51.1961Z" fill="black"/>
</g>
</svg>
