<svg width="44" height="45" viewBox="0 0 44 45" fill="none" xmlns="http://www.w3.org/2000/svg">
<path d="M33.4695 16.6583C33.3577 16.3832 33.2352 16.1119 33.1078 15.8718C33.1078 15.8718 33.1078 15.8699 33.1068 15.8699C33.0981 15.8534 33.0893 15.8339 33.0806 15.8174C30.8309 11.2637 26.2868 8.37349 21.2129 8.26655C21.1147 8.25781 21.0088 8.25586 20.9028 8.25586C15.5606 8.25586 10.9407 11.3571 8.71432 15.8465C8.70752 15.8611 8.70072 15.8728 8.69488 15.8874C7.80629 17.6946 7.29297 19.7197 7.29297 21.8662C7.29297 24.0128 7.80726 26.0436 8.69877 27.8528C8.70266 27.8625 8.70752 27.8703 8.71141 27.88C10.9368 32.3724 15.5586 35.4766 20.9028 35.4766C21.2003 35.4766 21.4871 35.4659 21.7739 35.4445C22.3096 35.4036 22.7101 34.937 22.6693 34.4013C22.6285 33.8657 22.1637 33.4613 21.6261 33.506C21.3947 33.5235 21.1624 33.5313 20.9232 33.5322V33.5293C20.9164 33.5293 20.9096 33.5322 20.9028 33.5322C19.4659 33.5322 18.0076 31.5344 17.119 28.4575H19.0265C19.5631 28.4575 19.9987 28.0229 19.9987 27.4853C19.9987 26.9477 19.5631 26.5132 19.0265 26.5132H16.6728C16.4015 25.0316 16.2566 23.4751 16.2566 21.8662C16.2566 20.2573 16.4025 18.7008 16.6728 17.2212H25.2262C25.4265 17.5109 25.7687 17.6888 26.142 17.6392C26.4268 17.6023 26.6592 17.4409 26.8099 17.2212H31.5931C31.6077 17.2552 31.6262 17.2883 31.6407 17.3233C31.7642 17.718 32.1327 18.0018 32.5692 18.0018C33.1059 18.0018 33.5414 17.5615 33.5414 17.0248C33.5414 16.8994 33.5171 16.775 33.4695 16.6583ZM30.5169 15.2769H26.6913C26.2392 13.5153 25.6189 12.0386 24.8752 10.8992C27.1482 11.7187 29.1247 13.2343 30.5169 15.2769ZM20.9028 10.2002C20.9485 10.2002 20.9952 10.1982 21.0564 10.2041C22.434 10.345 23.8213 12.3176 24.6778 15.2769H17.118C18.0076 12.197 19.4659 10.2002 20.9028 10.2002ZM16.9041 10.9215C16.1721 12.0541 15.5606 13.5211 15.1065 15.2778H11.2858C12.6488 13.2956 14.6107 11.7634 16.9051 10.9215H16.9041ZM16.8935 32.808C14.6039 31.9661 12.6469 30.4368 11.2858 28.4585H15.1017C15.5538 30.2094 16.1633 31.6764 16.8925 32.808H16.8935ZM14.6943 26.5142H10.2076C9.58542 25.089 9.2364 23.5189 9.2364 21.8672C9.2364 20.2155 9.58542 18.6474 10.2067 17.2222H14.6943C14.4435 18.7125 14.3113 20.268 14.3113 21.8672C14.3113 23.4664 14.4435 25.0219 14.6943 26.5142Z" fill="#F9F9F9"/>
<path d="M35.7527 19.9598L28.9473 18.0155C28.7723 17.9649 28.5876 17.9649 28.4126 18.0155L21.6072 19.9598C21.1901 20.0794 20.9023 20.4605 20.9023 20.894V26.1282C20.9023 31.0153 23.8044 35.4173 28.2969 37.3422C28.4194 37.3947 28.5497 37.4209 28.6799 37.4209C28.8102 37.4209 28.9405 37.3947 29.063 37.3422C33.5555 35.4173 36.4575 31.0153 36.4575 26.1282V20.894C36.4575 20.4605 36.1698 20.0784 35.7527 19.9598ZM28.5088 29.106C28.3261 29.2946 28.0743 29.4015 27.8108 29.4015C27.5473 29.4015 27.2955 29.2955 27.1128 29.106L25.5514 27.4941C25.1781 27.1081 25.1878 26.4928 25.5728 26.1194C25.9588 25.7461 26.5742 25.7559 26.9475 26.1408L27.8118 27.0323L30.4124 24.3491C30.7857 23.9632 31.4021 23.9544 31.7871 24.3277C32.1721 24.702 32.1818 25.3174 31.8085 25.7024L28.5088 29.105V29.106Z" fill="white"/>
</svg>
