<svg width="44" height="45" viewBox="0 0 44 45" fill="none" xmlns="http://www.w3.org/2000/svg">
<path d="M36.1732 15.3425L29.368 8.53729C29.1852 8.35452 28.9383 8.25244 28.6807 8.25244H16.0425C15.5058 8.25244 15.0703 8.687 15.0703 9.22461V17.002C15.0703 17.5396 15.5058 17.9741 16.0425 17.9741C16.5791 17.9741 17.0146 17.5396 17.0146 17.002V10.1968H27.7095V16.0298C27.7095 16.5674 28.145 17.002 28.6816 17.002H34.5137V35.4731H17.0146V34.501C17.0146 33.9634 16.5791 33.5288 16.0425 33.5288C15.5058 33.5288 15.0703 33.9634 15.0703 34.501V36.4453C15.0703 36.9829 15.5058 37.4175 16.0425 37.4175H35.4858C36.0225 37.4175 36.458 36.9829 36.458 36.4453V16.0298C36.458 15.7712 36.3559 15.5243 36.1732 15.3425ZM29.6538 11.5734L33.138 15.0576H29.6538V11.5734Z" fill="white"/>
<path d="M32.5698 30.6125C33.1065 30.6125 33.542 30.178 33.542 29.6404V29.1543C33.542 28.6167 33.1065 28.1821 32.5698 28.1821C32.0332 28.1821 31.5977 28.6167 31.5977 29.1543V29.6404C31.5977 30.178 32.0332 30.6125 32.5698 30.6125Z" fill="white"/>
<path d="M31.5977 33.5291C31.5977 34.0667 32.0332 34.5012 32.5698 34.5012C33.1065 34.5012 33.542 34.0667 33.542 33.5291V33.043C33.542 32.5054 33.1065 32.0708 32.5698 32.0708C32.0332 32.0708 31.5977 32.5054 31.5977 33.043V33.5291Z" fill="white"/>
<path d="M26.7363 31.5845V19.9185C26.7363 19.3808 26.3008 18.9463 25.7642 18.9463H8.26514C7.7285 18.9463 7.29297 19.3808 7.29297 19.9185V31.5845C7.29297 32.1221 7.7285 32.5566 8.26514 32.5566H25.7642C26.3008 32.5566 26.7363 32.1221 26.7363 31.5845ZM13.6762 27.8902C13.3272 28.2976 12.7128 28.3452 12.3055 27.9952L10.5488 26.4893C10.3329 26.3056 10.2095 26.0353 10.2095 25.7515C10.2095 25.4676 10.3329 25.1983 10.5488 25.0136L12.3055 23.5077C12.7128 23.1577 13.3272 23.2054 13.6762 23.6127C14.0252 24.02 13.9786 24.6344 13.5712 24.9835L12.6759 25.7515L13.5712 26.5195C13.9786 26.8685 14.0262 27.4829 13.6762 27.8902ZM16.1708 29.1259C15.6497 28.9956 15.3338 28.4677 15.4631 27.9466L16.6783 23.0858C16.8085 22.5647 17.3364 22.2478 17.8575 22.378C18.3786 22.5083 18.6946 23.0362 18.5653 23.5573L17.35 28.4181C17.2198 28.9392 16.6919 29.2561 16.1708 29.1259ZM23.4805 26.4903L21.7238 27.9962C21.3165 28.3462 20.7021 28.2985 20.3531 27.8912C20.0041 27.4839 20.0507 26.8695 20.4581 26.5204L21.3534 25.7524L20.4581 24.9844C20.0507 24.6354 20.0031 24.021 20.3531 23.6137C20.7021 23.2063 21.3165 23.1587 21.7238 23.5087L23.4805 25.0146C23.6964 25.1983 23.8198 25.4686 23.8198 25.7524C23.8198 26.0363 23.6964 26.3056 23.4805 26.4903Z" fill="white"/>
</svg>
