<svg width="92" height="94" viewBox="0 0 92 94" fill="none" xmlns="http://www.w3.org/2000/svg">
<path d="M46.166 4.3291C69.3493 4.32936 88.0098 23.5084 88.0098 47C88.0098 70.4916 69.3493 89.6706 46.166 89.6709C22.9825 89.6709 4.32129 70.4918 4.32129 47C4.32129 23.5082 22.9825 4.3291 46.166 4.3291Z" fill="#A7004C" stroke="white" stroke-width="7.34118"/>
<path d="M56.5309 60.2261V64.4702H38.178V60.2261H44.8997V40.8867C44.8997 40.122 44.9227 39.3343 44.9686 38.5237L40.1968 42.5155C39.9215 42.7296 39.6462 42.8673 39.3709 42.9284C39.1109 42.9743 38.8586 42.9743 38.6139 42.9284C38.3845 42.8826 38.178 42.8061 37.9945 42.699C37.8109 42.5767 37.6733 42.4467 37.5815 42.309L35.7921 39.8543L45.9092 31.2514H50.5662V60.2261H56.5309Z" fill="white"/>
</svg>
