<svg width="92" height="93" viewBox="0 0 92 93" fill="none" xmlns="http://www.w3.org/2000/svg">
<path d="M46.166 3.82568C69.3493 3.82594 88.0098 23.005 88.0098 46.4966C88.0098 69.9882 69.3493 89.1672 46.166 89.1675C22.9825 89.1675 4.32129 69.9884 4.32129 46.4966C4.32129 23.0048 22.9825 3.82568 46.166 3.82568Z" fill="#A7004C" stroke="white" stroke-width="7.34118"/>
<path d="M55.2921 58.6903C55.9039 58.6903 56.3856 58.8662 56.7374 59.218C57.1045 59.5544 57.288 60.0056 57.288 60.5715V63.9668H34.5303V62.0856C34.5303 61.7033 34.6068 61.3056 34.7597 60.8927C34.928 60.4644 35.188 60.0821 35.5397 59.7456L45.6109 49.6515C46.4521 48.795 47.2015 47.9768 47.8592 47.1968C48.5321 46.4168 49.0903 45.6444 49.5339 44.8797C49.9774 44.115 50.3139 43.3427 50.5433 42.5627C50.788 41.7674 50.9103 40.9339 50.9103 40.0621C50.9103 39.2668 50.7956 38.5709 50.5662 37.9744C50.3368 37.3627 50.008 36.8503 49.5797 36.4374C49.1668 36.0244 48.6621 35.7186 48.0656 35.5197C47.4845 35.3056 46.8268 35.1986 46.0927 35.1986C45.4197 35.1986 44.7927 35.298 44.2115 35.4968C43.6456 35.6803 43.1409 35.948 42.6974 36.2997C42.2539 36.6362 41.8792 37.0339 41.5733 37.4927C41.2674 37.9515 41.038 38.4562 40.885 39.0068C40.625 39.7103 40.2886 40.1768 39.8756 40.4062C39.4627 40.6356 38.8662 40.6891 38.0862 40.5668L35.1039 40.0391C35.3333 38.4486 35.7768 37.0568 36.4345 35.8639C37.0921 34.6556 37.9103 33.6539 38.8892 32.8586C39.8833 32.048 41.015 31.4439 42.2845 31.0462C43.5692 30.6333 44.9456 30.4268 46.4139 30.4268C47.9433 30.4268 49.3427 30.6562 50.6121 31.115C51.8815 31.5586 52.9674 32.1933 53.8697 33.0191C54.7721 33.845 55.4756 34.8391 55.9803 36.0015C56.485 37.1639 56.7374 38.4562 56.7374 39.8786C56.7374 41.1021 56.5539 42.2339 56.1868 43.2739C55.835 44.3139 55.3533 45.308 54.7415 46.2562C54.145 47.2044 53.4415 48.1221 52.6309 49.0091C51.8203 49.8962 50.9715 50.7986 50.0845 51.7162L42.6056 59.3556C43.3245 59.1415 44.0356 58.9809 44.7392 58.8739C45.458 58.7515 46.1386 58.6903 46.7809 58.6903H55.2921Z" fill="white"/>
</svg>
