<svg width="92" height="94" viewBox="0 0 92 94" fill="none" xmlns="http://www.w3.org/2000/svg">
<path d="M46.166 4.32227C69.3493 4.32252 88.0098 23.5015 88.0098 46.9932C88.0098 70.4848 69.3493 89.6638 46.166 89.6641C22.9825 89.6641 4.32129 70.4849 4.32129 46.9932C4.32129 23.5014 22.9825 4.32227 46.166 4.32227Z" fill="#A7004C" stroke="white" stroke-width="7.34118"/>
<path d="M35.2645 40.5357C35.4939 38.9451 35.9374 37.5534 36.595 36.3604C37.2527 35.1522 38.0709 34.1504 39.0497 33.3551C40.0439 32.5446 41.1756 31.9404 42.445 31.5428C43.7297 31.1298 45.1062 30.9234 46.5745 30.9234C48.1039 30.9234 49.4803 31.1451 50.7039 31.5887C51.9427 32.0169 52.998 32.621 53.8697 33.401C54.7415 34.1657 55.4068 35.0681 55.8656 36.1081C56.3398 37.1481 56.5768 38.2722 56.5768 39.4804C56.5768 40.5357 56.4545 41.4687 56.2097 42.2793C55.9803 43.0746 55.6439 43.7704 55.2003 44.3669C54.7568 44.9634 54.2062 45.4681 53.5486 45.881C52.8909 46.294 52.1492 46.6381 51.3233 46.9134C53.3115 47.5404 54.795 48.4963 55.7739 49.781C56.7527 51.0657 57.2421 52.6793 57.2421 54.6216C57.2421 56.2734 56.9362 57.734 56.3245 59.0034C55.7127 60.2728 54.8868 61.3434 53.8468 62.2151C52.8068 63.0716 51.5986 63.7216 50.2221 64.1651C48.8609 64.6087 47.4156 64.8304 45.8862 64.8304C44.2192 64.8304 42.7662 64.6393 41.5274 64.2569C40.2886 63.8746 39.2103 63.3087 38.2927 62.5593C37.375 61.8098 36.595 60.8922 35.9527 59.8063C35.3103 58.7204 34.7597 57.4663 34.3009 56.044L36.8015 55.0116C37.4592 54.7363 38.0709 54.6675 38.6368 54.8051C39.218 54.9275 39.6386 55.2334 39.8986 55.7228C40.1739 56.2581 40.4721 56.7857 40.7933 57.3057C41.1297 57.8257 41.5274 58.2922 41.9862 58.7051C42.445 59.1028 42.9803 59.4316 43.5921 59.6916C44.2192 59.9363 44.9609 60.0587 45.8174 60.0587C46.7809 60.0587 47.6221 59.9057 48.3409 59.5998C49.0597 59.2787 49.6562 58.8657 50.1303 58.361C50.6197 57.8563 50.9792 57.2981 51.2086 56.6863C51.4533 56.0593 51.5756 55.4322 51.5756 54.8051C51.5756 54.0098 51.4915 53.291 51.3233 52.6487C51.155 51.991 50.8033 51.4328 50.268 50.974C49.7327 50.5151 48.9603 50.1557 47.9509 49.8957C46.9568 49.6357 45.6186 49.5057 43.9362 49.5057V45.4681C45.328 45.4528 46.4827 45.3228 47.4003 45.0781C48.318 44.8334 49.0445 44.4969 49.5797 44.0687C50.1303 43.6251 50.5127 43.0975 50.7268 42.4857C50.9409 41.874 51.048 41.201 51.048 40.4669C51.048 38.9069 50.6121 37.7216 49.7403 36.911C48.8686 36.1004 47.7062 35.6951 46.2533 35.6951C45.5803 35.6951 44.9609 35.7946 44.395 35.9934C43.8292 36.1769 43.3168 36.4445 42.858 36.7963C42.4145 37.1328 42.0397 37.5304 41.7339 37.9893C41.428 38.4481 41.1986 38.9528 41.0456 39.5034C40.7856 40.2069 40.4415 40.6734 40.0133 40.9028C39.6003 41.1322 39.0115 41.1857 38.2468 41.0634L35.2645 40.5357Z" fill="white"/>
</svg>
