<svg width="92" height="94" viewBox="0 0 92 94" fill="none" xmlns="http://www.w3.org/2000/svg">
<path d="M46.166 4.31494C69.3493 4.3152 88.0098 23.4942 88.0098 46.9858C88.0098 70.4775 69.3493 89.6565 46.166 89.6567C22.9825 89.6567 4.32129 70.4776 4.32129 46.9858C4.32129 23.4941 22.9825 4.31494 46.166 4.31494Z" fill="#A7004C" stroke="white" stroke-width="7.34118"/>
<path d="M42.1009 43.3272C42.835 43.1743 43.5386 43.0672 44.2115 43.0061C44.8845 42.9296 45.5345 42.8913 46.1615 42.8913C47.905 42.8913 49.4421 43.1513 50.7727 43.6713C52.1033 44.1913 53.2198 44.9102 54.1221 45.8278C55.0245 46.7455 55.705 47.8237 56.1639 49.0625C56.6227 50.2861 56.8521 51.609 56.8521 53.0313C56.8521 54.7902 56.5386 56.3961 55.9115 57.849C55.2998 59.3019 54.4433 60.5484 53.3421 61.5884C52.2409 62.6131 50.9333 63.4084 49.4192 63.9743C47.9203 64.5402 46.2839 64.8231 44.5097 64.8231C43.4697 64.8231 42.4833 64.7161 41.5503 64.5019C40.6174 64.2878 39.738 64.0049 38.9121 63.6531C38.1015 63.2861 37.3445 62.8731 36.6409 62.4143C35.9527 61.9402 35.3333 61.4431 34.7827 60.9231L36.5262 58.5143C36.8933 57.9943 37.375 57.7343 37.9715 57.7343C38.3539 57.7343 38.7439 57.8566 39.1415 58.1013C39.5392 58.3461 39.9903 58.6137 40.495 58.9043C41.015 59.1949 41.6192 59.4625 42.3074 59.7072C43.0109 59.9519 43.8521 60.0743 44.8309 60.0743C45.8709 60.0743 46.7886 59.9061 47.5839 59.5696C48.3792 59.2331 49.0368 58.7666 49.5568 58.1702C50.0921 57.5584 50.4897 56.8396 50.7497 56.0137C51.025 55.1725 51.1627 54.2625 51.1627 53.2837C51.1627 51.479 50.635 50.0719 49.5797 49.0625C48.5397 48.0378 46.995 47.5255 44.9456 47.5255C43.3703 47.5255 41.7568 47.8161 40.105 48.3972L36.5721 47.3878L39.325 31.2831H55.705V33.6919C55.705 34.5025 55.4527 35.1602 54.948 35.6649C54.4433 36.1696 53.5868 36.4219 52.3786 36.4219H43.2709L42.1009 43.3272Z" fill="white"/>
</svg>
